<svg width="64" height="40" viewBox="0 0 64 40" fill="none" xmlns="http://www.w3.org/2000/svg">
<path fill-rule="evenodd" clip-rule="evenodd" d="M41.038 16.1855C41.2682 15.8918 41.5302 15.5981 41.8238 15.3044C42.1255 15.0107 42.435 14.729 42.7525 14.4591C43.07 14.1813 43.3915 13.9114 43.7169 13.6495C44.0423 13.3875 44.336 13.1375 44.5979 12.8994C44.3201 12.574 44.0145 12.2485 43.6812 11.9231C43.3478 11.5977 43.0263 11.2802 42.7168 10.9706C42.4072 10.6611 42.1255 10.3674 41.8715 10.0896C41.6254 9.81179 41.4508 9.57764 41.3476 9.38714C41.4746 8.02193 41.7048 6.73608 42.0382 5.52961C42.3795 4.32314 42.8438 3.15239 43.4311 2.01735C44.8599 1.78717 46.3203 1.61255 47.8125 1.49349C49.3127 1.37443 50.7216 1.31093 52.0392 1.30299C53.3647 1.29506 54.5394 1.33474 55.5633 1.42205C56.5872 1.50936 57.3532 1.62842 57.8612 1.77923C58.4803 2.19991 59.02 2.85871 59.4804 3.75562C59.9487 4.6446 60.2702 5.62486 60.4448 6.6964C60.3019 7.19645 60.0955 7.7084 59.8257 8.23227C59.5558 8.75613 59.2502 9.24824 58.9089 9.70861C58.5676 10.161 58.2065 10.5698 57.8255 10.9349C57.4445 11.3 57.0675 11.5778 56.6944 11.7683C56.9563 11.8953 57.3254 12.0858 57.8017 12.3398C58.2779 12.5938 58.77 12.9073 59.278 13.2804C59.7939 13.6534 60.2781 14.094 60.7305 14.602C61.1909 15.102 61.5282 15.6775 61.7425 16.3283C61.7743 16.6696 61.7227 17.1538 61.5878 17.7808C61.4608 18.4079 61.2703 19.0667 61.0163 19.7572C60.7623 20.4478 60.4607 21.1304 60.1114 21.8051C59.7622 22.4797 59.3851 23.0433 58.9803 23.4957C58.4565 23.837 57.754 24.1069 56.873 24.3053C55.9999 24.5037 55.0434 24.6466 54.0036 24.7339C52.9639 24.8212 51.8844 24.853 50.7652 24.8292C49.6461 24.8054 48.5666 24.7419 47.5268 24.6387C46.487 24.5434 45.5306 24.4125 44.6575 24.2458C43.7844 24.0712 43.0898 23.8965 42.5739 23.7219C42.3755 23.2854 42.185 22.7814 42.0024 22.2099C41.8278 21.6384 41.6651 21.0312 41.5143 20.3883C41.3714 19.7453 41.2563 19.0667 41.169 18.3523C41.0817 17.638 41.038 16.9157 41.038 16.1855ZM50.4341 5.25429L50.4872 5.22072C50.6165 5.14177 50.7585 5.08311 50.9262 5.03293C51.4278 4.88558 52.0849 4.89315 52.7143 5.03368C53.3416 5.17597 53.939 5.45297 54.3304 5.79966C54.7188 6.15231 54.8981 6.53234 54.7958 6.98553L54.5263 8.17959C54.3644 8.15344 54.1981 8.147 54.0471 8.16471C53.9406 8.17795 53.8393 8.2048 53.742 8.25948C53.6424 8.31569 53.5423 8.41944 53.5145 8.5519L53.3704 9.19031L50.3344 8.5035L50.4786 7.86533C50.5095 7.73231 50.4646 7.59713 50.3994 7.50455C50.3343 7.41222 50.2546 7.34497 50.1645 7.28801C50.035 7.20599 49.8834 7.14261 49.7244 7.0941L49.9937 5.8998C50.0557 5.61807 50.2068 5.40803 50.4341 5.25429ZM48.3384 9.67676L48.8225 7.52806C48.8386 7.52132 48.8707 7.50808 48.9246 7.50243C49.0469 7.48735 49.2411 7.50049 49.4233 7.54283C49.6079 7.58364 49.7873 7.65372 49.8903 7.72043C49.9384 7.74904 49.9617 7.77488 49.9731 7.78756L49.9736 7.78809L49.4829 9.96388L49.4805 9.9654C49.4684 9.97304 49.4291 9.99109 49.3719 9.99683C49.2557 10.0162 49.0667 10.0005 48.8872 9.9517C48.7083 9.90928 48.5296 9.82963 48.4275 9.75898C48.3777 9.72289 48.3475 9.69124 48.3384 9.67676ZM50.0886 9.60145L50.2247 8.99851L53.2553 9.68202L53.1231 10.2858L52.1721 10.3799L52.1327 10.5636C52.1016 10.7015 51.9878 10.8477 51.8309 10.9469C51.6763 11.0446 51.4954 11.0845 51.3575 11.0534L51.3559 11.051L51.3535 11.0525C51.2156 11.0214 51.0694 10.9077 50.9717 10.7531C50.8726 10.5962 50.8326 10.4153 50.8638 10.2774L50.9071 10.0946L50.0886 9.60145ZM48.0382 14.5663L48.9603 10.49C49.1246 10.5146 49.29 10.525 49.4458 10.5043C49.5557 10.4855 49.6658 10.4565 49.7657 10.39C49.852 10.3287 49.9287 10.2363 49.9664 10.1247L50.3475 10.3535C50.3393 10.5919 50.4128 10.8259 50.5394 11.0263C50.6981 11.2774 50.9395 11.483 51.243 11.5515C51.5464 11.6199 51.8528 11.5379 52.104 11.3792C52.3044 11.2525 52.4713 11.0727 52.5663 10.8539L53.0064 10.8124C52.9963 10.9302 53.0332 11.0421 53.0875 11.1227C53.1494 11.2153 53.2285 11.287 53.3181 11.3486C53.4475 11.4358 53.6026 11.5101 53.7622 11.5647L52.8404 15.6577C52.6689 15.6376 52.4993 15.6366 52.3441 15.6638C52.2391 15.6794 52.1369 15.7102 52.0388 15.7688C51.9576 15.8168 51.8738 15.9035 51.8322 16.0142L51.4535 15.7839C51.4578 15.5446 51.3858 15.313 51.2607 15.115C51.102 14.8639 50.863 14.6567 50.5572 14.5898C50.2522 14.519 49.9458 14.601 49.6946 14.7597C49.4966 14.8849 49.3288 15.0686 49.2323 15.285L48.7914 15.3305C48.8038 15.2111 48.7742 15.0947 48.7225 15.0023C48.6609 14.8993 48.5739 14.8259 48.4843 14.7642C48.3533 14.6747 48.201 14.6155 48.0382 14.5663ZM53.5222 10.848L54.0055 8.69784C54.0215 8.6911 54.0511 8.67914 54.1083 8.6734C54.23 8.65736 54.4214 8.67155 54.6066 8.71332C54.7903 8.75268 54.9709 8.82446 55.0738 8.89117C55.1215 8.91848 55.1447 8.94441 55.1562 8.95737L54.6661 11.1287L54.6613 11.1318C54.6507 11.1418 54.6123 11.156 54.5543 11.1656C54.439 11.181 54.249 11.1693 54.0695 11.1205C53.8907 11.0781 53.7095 11 53.6083 10.9254C53.5591 10.8956 53.5314 10.8625 53.5222 10.848ZM54.6652 11.1327C54.6668 11.1351 54.6725 11.1281 54.6661 11.1287L54.6652 11.1327ZM46.6441 17.1805L47.1256 15.0314L47.1292 15.0299C47.1471 15.0222 47.1851 15.006 47.2429 14.9978C47.3679 14.9763 47.5627 14.985 47.7433 15.0195C47.9255 15.0565 48.1014 15.121 48.2005 15.1868C48.2512 15.219 48.2789 15.2522 48.2865 15.2642L48.2881 15.2666L47.7968 17.4421L47.7958 17.4425C47.7801 17.449 47.7478 17.4623 47.6928 17.4673C47.5709 17.4835 47.3772 17.4674 47.1947 17.4272C47.0102 17.385 46.8309 17.3158 46.7268 17.2498C46.679 17.2192 46.6556 17.1934 46.6441 17.1805ZM48.5394 16.456L48.6779 15.8515L49.6289 15.7575L49.6674 15.5777C49.6985 15.4398 49.8116 15.2872 49.9662 15.1896C50.1208 15.0919 50.3072 15.0553 50.4427 15.0879L50.4442 15.0903L50.4466 15.0888C50.583 15.1175 50.7332 15.2321 50.8308 15.3866C50.9269 15.5388 50.9675 15.726 50.9364 15.8639L50.8939 16.0428L51.7124 16.5359L51.5739 17.1404L48.5394 16.456ZM48.2855 17.5861L48.4288 16.9549L51.4633 17.6393L51.321 18.2699C51.2908 18.4039 51.3326 18.5396 51.3985 18.6331C51.4643 18.7267 51.5452 18.7905 51.6357 18.8482C51.766 18.9314 51.915 18.9961 52.0763 19.0428L51.8068 20.2369C51.7045 20.69 51.377 20.9578 50.8756 21.1057C50.3752 21.2529 49.7167 21.2466 49.0873 21.1036C48.46 20.9628 47.8636 20.6875 47.4723 20.3366C47.0821 19.9885 46.901 19.6063 47.0028 19.1534L47.2728 17.959C47.4391 17.9857 47.6014 17.9913 47.7541 17.9725C47.8599 17.9597 47.9621 17.9358 48.0607 17.8802C48.1577 17.8223 48.255 17.7169 48.2855 17.5861ZM51.8247 18.3503L52.3119 16.2011C52.3264 16.1919 52.3657 16.1739 52.4253 16.1666C52.5502 16.1451 52.745 16.1538 52.9256 16.1883C53.1078 16.2253 53.2853 16.2922 53.3843 16.3581C53.4326 16.3917 53.4588 16.4225 53.4664 16.4346L53.468 16.437C53.4704 16.4355 53.4725 16.4442 53.4695 16.4394L52.9779 18.6083C52.9618 18.6151 52.9298 18.6286 52.8741 18.6367C52.7525 18.6528 52.5595 18.6362 52.3758 18.5968C52.193 18.5535 52.0101 18.4833 51.9086 18.419C51.8594 18.3892 51.8363 18.3633 51.8247 18.3503ZM20.8336 17.376C20.8416 15.8362 20.8574 14.2567 20.8812 12.6375C20.913 11.0183 20.9447 9.49827 20.9765 8.07749C21.0082 6.65671 21.04 5.40658 21.0717 4.32711C21.1035 3.2397 21.1273 2.47772 21.1432 2.04116C21.548 1.96179 22.0798 1.91417 22.7386 1.89829C23.1751 1.89036 23.6196 1.88639 24.072 1.88639H24.7388C25.4134 1.89432 26.0207 1.9102 26.5604 1.93401C27.1081 1.95782 27.4811 1.97767 27.6795 1.99354C27.6637 2.27135 27.6478 2.68012 27.6319 3.21985C27.6161 3.75165 27.6041 4.35886 27.5962 5.04147C27.5883 5.72408 27.5843 6.4424 27.5843 7.19645C27.5843 7.94255 27.5883 8.65691 27.5962 9.33952C27.6041 10.0221 27.624 10.6492 27.6557 11.2207C27.6875 11.7842 27.7272 12.2208 27.7748 12.5303C27.8065 12.7446 27.9177 12.8597 28.1082 12.8756H28.132C28.3145 12.8756 28.5368 12.7208 28.7987 12.4113C29.0289 12.1017 29.3305 11.689 29.7036 11.173C30.0766 10.6492 30.4655 10.0936 30.8703 9.5062C31.2752 8.91884 31.676 8.33942 32.0729 7.76793C32.4777 7.18851 32.819 6.6964 33.0968 6.29159H33.4182C33.7992 6.29159 34.1961 6.31144 34.6088 6.35112C35.1486 6.40668 35.7002 6.48209 36.2638 6.57734C36.8273 6.67258 37.3869 6.78371 37.9425 6.9107C38.506 7.02976 39.0498 7.14485 39.5736 7.25598C39.3434 7.59728 39.014 8.12114 38.5854 8.82756C38.1568 9.52605 37.6925 10.2722 37.1924 11.0659C36.7003 11.8596 36.2042 12.6692 35.7042 13.4947C35.2121 14.3122 34.7953 15.0306 34.454 15.6497C34.7795 16.4117 35.1486 17.13 35.5613 17.8047C35.982 18.4793 36.4106 19.1342 36.8471 19.7691L38.1568 21.6741C38.6013 22.3091 39.0021 22.9758 39.3593 23.6743C38.9704 23.8013 38.4703 23.9283 37.8592 24.0553C37.248 24.1744 36.6249 24.2696 35.9899 24.341C35.3549 24.4125 34.7477 24.472 34.1683 24.5196C33.5968 24.5752 33.1404 24.6188 32.7991 24.6506C32.2753 23.9839 31.7792 23.3211 31.3109 22.6623C30.8426 22.0035 30.414 21.3963 30.025 20.8407C29.644 20.2771 29.3107 19.781 29.0249 19.3524C28.7471 18.9159 28.5169 18.5984 28.3344 18.4C28.1915 18.3206 28.0685 18.2809 27.9653 18.2809C27.8859 18.2809 27.8105 18.3047 27.7391 18.3523C27.6676 18.4 27.6319 18.523 27.6319 18.7214C27.6319 19.031 27.6359 19.4199 27.6438 19.8882C27.6518 20.3486 27.6557 20.8327 27.6557 21.3407C27.6557 21.8408 27.6518 22.3488 27.6438 22.8647C27.6359 23.3727 27.6161 23.8211 27.5843 24.2101C27.3541 24.3212 26.9295 24.4085 26.3104 24.472C25.6913 24.5434 25.0325 24.599 24.334 24.6387C23.6355 24.6784 22.9727 24.6982 22.3457 24.6982C21.7266 24.6982 21.286 24.6665 21.0241 24.603C20.9527 23.8727 20.9011 22.8687 20.8693 21.5908C20.8376 20.543 20.8257 19.412 20.8336 18.1976V17.376ZM2.27221 16.3998C2.25634 16.0743 2.2484 15.7489 2.2484 15.4235C2.2484 14.2646 2.35952 13.1058 2.58176 11.9469C2.86751 10.4547 3.33978 9.04584 3.99858 7.72031C5.05424 7.36313 6.15356 7.06151 7.29653 6.81546C8.44744 6.56146 9.60629 6.36303 10.7731 6.22016C11.9478 6.06935 13.1146 5.96616 14.2734 5.9106C15.0116 5.87885 15.7458 5.86298 16.476 5.86298C16.8888 5.86298 17.2975 5.86695 17.7023 5.87488C17.9167 6.50987 18.0476 7.20438 18.0952 7.95843C18.1349 8.52198 18.1548 9.05775 18.1548 9.56573C18.1548 9.73242 18.1508 9.8991 18.1429 10.0658C16.8888 10.2483 15.6386 10.3912 14.3925 10.4944C13.1543 10.5976 11.9081 10.7563 10.654 10.9706C10.3921 11.3437 10.2294 11.7485 10.1659 12.185C10.1024 12.6216 10.0627 13.0621 10.0468 13.5066C11.3962 13.7527 12.7376 13.9789 14.071 14.1852C15.4045 14.3837 16.7538 14.5861 18.1191 14.7925C18.381 15.3481 18.5516 15.9553 18.631 16.6141C18.6786 16.9792 18.7024 17.3483 18.7024 17.7213C18.7024 18.015 18.6866 18.3126 18.6548 18.6143C18.5913 19.2889 18.4564 19.9477 18.25 20.5907C18.0516 21.2336 17.7976 21.813 17.488 22.3289C16.4483 22.8131 15.3569 23.2298 14.2139 23.5791C13.0789 23.9204 11.928 24.2021 10.7612 24.4244C9.60232 24.6546 8.43553 24.853 7.26081 25.0197C6.09403 25.1943 4.94312 25.3372 3.80808 25.4483C3.66521 25.3689 3.53821 25.1268 3.42709 24.722C3.3239 24.3172 3.24056 23.8767 3.17706 23.4005C3.10563 22.9242 3.05404 22.4559 3.02229 21.9956C2.99847 21.6939 2.98657 21.4519 2.98657 21.2693C2.98657 21.182 2.99054 21.1066 2.99847 21.0431C3.61758 20.9955 4.29622 20.9359 5.03439 20.8645C5.77256 20.7851 6.49089 20.6859 7.18938 20.5668C7.88786 20.4398 8.53475 20.3049 9.13005 20.162C9.72535 20.0112 10.1778 19.8723 10.4873 19.7453C10.5508 19.5469 10.5985 19.2969 10.6302 18.9953C10.6461 18.8444 10.654 18.6976 10.654 18.5547C10.654 18.4039 10.6461 18.265 10.6302 18.138C10.4476 18.011 10.154 17.9078 9.74916 17.8285C9.34436 17.7412 8.87605 17.6578 8.34425 17.5784C7.82039 17.4991 7.25684 17.4276 6.65361 17.3641C6.05831 17.2927 5.47888 17.2173 4.91533 17.1379C4.35179 17.0586 3.83983 16.9633 3.37946 16.8522C2.9191 16.7331 2.55002 16.5823 2.27221 16.3998ZM19.8222 32.4782C19.1889 33.1582 18.8722 34.0216 18.8722 35.0682C18.8722 36.1216 19.1889 36.9916 19.8222 37.6782C20.4556 38.3582 21.3022 38.6982 22.3622 38.6982C23.3156 38.6982 24.0889 38.4482 24.6822 37.9482C25.2756 37.4416 25.6256 36.7482 25.7322 35.8682H24.4422C24.3622 36.4149 24.1389 36.8382 23.7722 37.1382C23.4122 37.4316 22.9489 37.5782 22.3822 37.5782C21.6822 37.5782 21.1356 37.3549 20.7422 36.9082C20.3556 36.4616 20.1622 35.8482 20.1622 35.0682C20.1622 34.2882 20.3556 33.6782 20.7422 33.2382C21.1356 32.7916 21.6822 32.5682 22.3822 32.5682C22.9489 32.5682 23.4122 32.7149 23.7722 33.0082C24.1389 33.3016 24.3622 33.7216 24.4422 34.2682H25.7322C25.6256 33.3949 25.2756 32.7082 24.6822 32.2082C24.0889 31.7016 23.3156 31.4482 22.3622 31.4482C21.3022 31.4482 20.4556 31.7916 19.8222 32.4782ZM2.2484 38.5982V31.5482H7.1184V32.6682H3.5384V35.0082L6.7884 34.8082V35.9482L3.5384 36.1482V38.5982H2.2484ZM14.9661 38.5982L14.2361 36.1382H11.3761L10.6461 38.5982H9.34605L11.4761 31.5482H14.1261L16.2661 38.5982H14.9661ZM11.7061 35.0182H13.8961L12.9661 31.8782H12.6361L11.7061 35.0182ZM34.2404 31.5482V32.6682H31.8904V38.5982H30.6004V32.6682H28.2304V31.5482H34.2404ZM36.7484 35.0682C36.7484 36.1216 37.0617 36.9916 37.6884 37.6782C38.3217 38.3582 39.1684 38.6982 40.2284 38.6982C41.2884 38.6982 42.1317 38.3582 42.7584 37.6782C43.3851 36.9916 43.6984 36.1216 43.6984 35.0682C43.6984 34.0216 43.3851 33.1582 42.7584 32.4782C42.1317 31.7916 41.2884 31.4482 40.2284 31.4482C39.1684 31.4482 38.3217 31.7882 37.6884 32.4682C37.0617 33.1482 36.7484 34.0149 36.7484 35.0682ZM38.0384 35.0682C38.0384 34.3016 38.2251 33.6949 38.5984 33.2482C38.9717 32.7949 39.5151 32.5682 40.2284 32.5682C40.9351 32.5682 41.4751 32.7949 41.8484 33.2482C42.2217 33.6949 42.4084 34.3016 42.4084 35.0682C42.4084 35.8349 42.2217 36.4449 41.8484 36.8982C41.4817 37.3516 40.9417 37.5782 40.2284 37.5782C39.5151 37.5782 38.9717 37.3516 38.5984 36.8982C38.2251 36.4449 38.0384 35.8349 38.0384 35.0682ZM47.1 38.5982V31.5482H49.68C50.1266 31.5482 50.52 31.5782 50.86 31.6382C51.2 31.6982 51.51 31.7982 51.79 31.9382C52.0766 32.0782 52.2933 32.2816 52.44 32.5482C52.5866 32.8149 52.66 33.1382 52.66 33.5182C52.66 34.4516 52.1266 34.9882 51.06 35.1282V35.4682H52.02C52.5066 35.4682 52.75 35.7082 52.75 36.1882V38.5982H51.46V35.9782H48.39V38.5982H47.1ZM48.39 34.8582H49.68C49.9266 34.8582 50.12 34.8549 50.26 34.8482C50.4066 34.8349 50.56 34.8116 50.72 34.7782C50.88 34.7382 51 34.6816 51.08 34.6082C51.1666 34.5282 51.2366 34.4216 51.29 34.2882C51.3433 34.1482 51.37 33.9749 51.37 33.7682C51.37 33.5616 51.34 33.3882 51.28 33.2482C51.2266 33.1082 51.16 33.0016 51.08 32.9282C51.0066 32.8482 50.8866 32.7882 50.72 32.7482C50.56 32.7082 50.41 32.6849 50.27 32.6782C50.13 32.6716 49.9333 32.6682 49.68 32.6682H48.39V34.8582ZM61.7516 31.5482H60.3716L58.6816 34.6882V35.4582H58.3516V34.6882L56.6616 31.5482H55.2816L57.8716 36.1882V38.5982H59.1616V36.1882L61.7516 31.5482Z" fill="black"/>
</svg>
